<svg id="Layer_1" enable-background="new 0 0 512 512" height="512" viewBox="0 0 512 512" width="512" xmlns="http://www.w3.org/2000/svg"><g><g fill="#0023c4"><path d="m337.454 312.07c-7.004-2.388-14.203-7.064-20.268-13.167-16.246-16.348-38.612-25.789-61.186-25.903-23.132-.151-45.71 9.325-62.186 25.902-9.539 9.599-21.575 15.098-32.814 15.098-11.463-.026-23.37-5.505-32.748-15.03-16.488-16.749-38.18-25.97-61.252-25.97-22.448.014-44.84 9.455-61.186 25.902-7.786 7.834-7.747 20.498.088 28.284 7.834 7.786 20.498 7.746 28.284-.088 8.897-8.952 20.933-14.09 32.814-14.098 12.269 0 23.84 4.983 32.748 14.032 16.822 17.088 39.177 26.917 61.252 26.968 21.817-.001 44.189-9.799 61.186-26.901 8.784-8.838 21.607-14.099 33.814-14.099 12.074.061 23.97 5.2 32.814 14.099 10.472 10.537 22.828 18.431 35.731 22.831 10.455 3.563 21.82-2.022 25.384-12.476 3.566-10.454-2.02-21.819-12.475-25.384z"/><g><path d="m256 158c.143 0-.142-.001 0 0z"/><path d="m506.186 183.902c-16.364-16.466-38.71-25.902-61.186-25.902-22.538.03-44.856 9.471-61.186 25.901-9.32 9.378-22.185 15.161-33.7 15.099-11.287-.064-23.596-5.708-32.928-15.099-16.246-16.346-38.611-25.786-61.186-25.901-22.961 0-45.812 9.426-62.186 25.901-9.539 9.599-21.575 15.099-32.814 15.099-11.463-.026-23.37-5.506-32.748-15.031-16.487-16.748-38.179-25.969-61.252-25.969-22.447.014-44.839 9.454-61.186 25.901-7.787 7.834-7.748 20.498.087 28.284s20.498 7.747 28.284-.087c8.898-8.952 20.934-14.09 32.815-14.098 12.269 0 23.84 4.982 32.748 14.031 16.822 17.088 39.177 26.918 61.252 26.969 21.817-.001 44.189-9.8 61.186-26.902 8.784-8.838 21.607-14.098 33.814-14.098 12.075.062 23.97 5.199 32.814 14.098 16.867 16.972 39.24 26.778 61.186 26.902 22.02-.001 45.425-10.037 62.186-26.902 8.889-8.943 20.832-14.082 32.814-14.098 11.897 0 23.908 5.136 32.814 14.098 7.786 7.834 20.449 7.874 28.284.088s7.874-20.449.088-28.284z"/></g></g><path d="m506.186 298.902c-16.363-16.465-38.71-25.902-61.186-25.902-12.957.017-26.094 3.155-37.939 9.074-7.17 3.583-13.675 7.945-19.333 12.965-8.263 7.331-9.019 19.972-1.688 28.234 7.33 8.262 19.972 9.019 28.234 1.688 2.997-2.659 6.686-5.116 10.667-7.105 6.339-3.167 13.258-4.847 20.061-4.856 11.898 0 23.908 5.137 32.814 14.098 3.91 3.934 9.047 5.902 14.187 5.902 5.097 0 10.197-1.937 14.098-5.814 7.832-7.786 7.871-20.449.085-28.284z" fill="#ff5cf3"/></g></svg>